<svg xmlns="http://www.w3.org/2000/svg" xmlns:xlink="http://www.w3.org/1999/xlink" id="Layer_1" x="0px" y="0px" viewBox="0 0 100 100" style="enable-background:new 0 0 100 100;" xml:space="preserve" width="64" height="64"><style type="text/css">	.st0{fill:#000046;}</style><g>	<path class="st0" d="M25.9,12.52c-0.81,0-1.35-0.28-1.45-1.11c-0.08-0.71,0.52-1.21,1.43-1.26c0.2-0.01,0.39,0,0.6,0h18.56  c0.26,0,0.52-0.02,0.79,0.02c0.71,0.1,1.18,0.49,1.15,1.22c-0.04,0.71-0.48,1.12-1.23,1.12H35.72  C32.45,12.51,29.17,12.5,25.9,12.52z"/>	<path class="st0" d="M11.58,18.57h33.64c0.26,0,0.53-0.03,0.78,0.03c0.61,0.15,1,0.55,0.97,1.19c-0.03,0.62-0.38,1.04-1.03,1.12  c-0.29,0.04-0.6,0.02-0.89,0.02H11.82c-0.29,0-0.6,0.02-0.89-0.02c-0.65-0.07-1.02-0.46-1.06-1.09c-0.03-0.69,0.38-1.09,1.03-1.23  C11.12,18.54,11.36,18.57,11.58,18.57z"/>	<path class="st0" d="M9.87,28.12c0.05-0.63,0.41-1.03,1.06-1.1c0.29-0.03,0.6-0.01,0.89-0.02h16.72c5.51,0,11.01,0,16.52,0.01  c0.29,0,0.6-0.02,0.89,0.01c0.65,0.08,1,0.5,1.03,1.12c0.03,0.64-0.35,1.05-0.97,1.19c-0.27,0.07-0.59,0.03-0.88,0.03H11.69  c-0.29,0-0.6,0.03-0.88-0.04C10.2,29.17,9.83,28.75,9.87,28.12z"/>	<path class="st0" d="M31.82,41.53c-7.47,0.17-14.94,0.06-22.42,0.06c-5.67,0-9.37-3.73-9.38-9.42C0,29.41,0,26.65,0.01,23.9  c0-1.32,0.34-1.86,1.2-1.84c0.84,0.01,1.15,0.53,1.15,1.9c0,2.68,0.12,5.38-0.02,8.06c-0.22,4.25,3.06,7.32,7.18,7.24  c8.46-0.14,16.91-0.03,25.38-0.05c1.2-0.01,2.21,0.31,3.18,1.04c3.32,2.5,6.67,4.95,10.24,7.6c-0.66-1.93-1.23-3.6-1.8-5.28  c-0.13-0.4-0.28-0.81-0.35-1.22c-0.17-1.13,0.58-2,1.78-2.12c4.36-0.46,6.54-2.89,6.54-7.26V9.45c0-4.43-2.66-7.1-7.08-7.1  c-12.64-0.01-25.3-0.01-37.95,0c-4.44,0-7.08,2.63-7.08,7.08c-0.01,2.16,0,4.32-0.01,6.49c0,1.01-0.45,1.62-1.21,1.55  c-0.9-0.07-1.16-0.67-1.15-1.5c0.02-2.43-0.02-4.85,0.01-7.27c0.06-4.6,3.66-8.37,8.24-8.68c0.45-0.03,0.91-0.03,1.37-0.03  c12.55,0,25.1,0.09,37.66-0.05c5.64-0.05,9.7,4.2,9.6,9.61c-0.13,7.45-0.03,14.88-0.03,22.33c0,5.34-2.55,8.52-7.74,9.67  c-0.12,0.02-0.24,0.06-0.39,0.11c0.84,2.47,1.65,4.92,2.5,7.36c0.18,0.54,0.31,1.08,0.09,1.62c-0.42,1-1.58,1.19-2.64,0.41  c-2.88-2.11-5.74-4.24-8.61-6.37c-0.31-0.23-0.67-0.43-0.94-0.71C37.09,41.91,34.65,41.47,31.82,41.53z"/>	<path class="st0" d="M99.09,29.93c-1.58-3.46-4.45-5.19-7.63-5.33c-3.15,0-5.31,0.89-7.08,2.64c-3.46,3.41-6.89,6.83-10.32,10.26  C60.57,51.01,47.1,64.51,33.6,78c-1.86,1.86-3.34,3.92-4.29,6.38c-1.51,3.92-3.01,7.87-4.55,11.79c-0.47,1.19-0.42,2.25,0.48,3.16  c0.93,0.92,2.03,0.89,3.19,0.43c3.74-1.45,7.49-2.91,11.24-4.32c2.42-0.92,4.6-2.23,6.43-4.06c10-9.98,19.98-19.98,29.96-29.98  c0.18-0.18,0.39-0.36,0.52-0.58c0.34-0.53,0.32-1.08-0.13-1.52c-0.46-0.44-1.01-0.45-1.52-0.08c-0.24,0.17-0.43,0.4-0.64,0.61  l-20.8,20.8c-2.55,2.55-5.12,5.09-7.64,7.66c-0.48,0.5-0.77,0.64-1.28,0.04c-0.83-0.94-1.72-1.82-2.64-2.64  c-0.6-0.52-0.63-0.82-0.02-1.41c8.44-8.39,16.84-16.81,25.26-25.22c4.26-4.27,8.54-8.52,12.77-12.81c0.6-0.61,0.9-0.57,1.43,0.03  c0.83,0.93,1.71,1.82,2.64,2.64c0.59,0.5,0.46,0.78-0.03,1.25c-1.42,1.36-2.79,2.77-4.19,4.17c-0.53,0.53-0.68,1.15-0.12,1.73  c0.59,0.62,1.22,0.49,1.81-0.07c0.07-0.07,0.14-0.14,0.2-0.21c3.39-3.38,6.79-6.75,10.17-10.14c1.95-1.95,3.97-3.82,5.78-5.89  C100.18,36.82,100.68,33.44,99.09,29.93z M27.51,97.59c-0.21,0.08-0.47,0.21-0.63-0.02c-0.07-0.11,0.02-0.36,0.08-0.53  c0.8-2.07,1.59-4.13,2.34-6.05c1.43,1.43,2.86,2.85,4.28,4.26C31.61,95.99,29.56,96.79,27.51,97.59z M42.94,89.98  c0.48,0.47,0.45,0.69-0.06,1.09c-1.88,1.43-4.1,2.14-6.25,3c-0.09,0.04-0.19,0.05-0.28,0.07c-0.3,0-0.44-0.24-0.63-0.42  c-1.64-1.64-3.29-3.28-4.93-4.93c-0.2-0.2-0.52-0.33-0.35-0.8c0.87-2.18,1.58-4.42,3.03-6.34c0.39-0.51,0.62-0.54,1.08-0.07  C37.32,84.4,40.13,87.2,42.94,89.98z M78.42,44.46c-0.35,0.29-0.66,0.65-0.98,0.97c-12.4,12.4-24.79,24.79-37.18,37.18  c-0.2,0.21-0.37,0.45-0.59,0.7c-0.2-0.17-0.33-0.26-0.45-0.37c-1.06-1.06-2.12-2.14-3.2-3.19c-0.36-0.34-0.31-0.54,0.02-0.86  c0.79-0.74,1.53-1.52,2.3-2.28c11.98-11.98,23.96-23.95,35.91-35.95c0.66-0.66,0.99-0.61,1.55,0.03c0.83,0.93,1.72,1.81,2.64,2.64  C78.96,43.79,78.9,44.08,78.42,44.46z M88.9,45.22c-0.74,0.75-1.49,1.46-2.21,2.23c-0.32,0.33-0.5,0.33-0.84,0  c-2.91-2.94-5.82-5.85-8.75-8.76c-0.32-0.31-0.39-0.5-0.03-0.85c0.78-0.71,1.51-1.45,2.23-2.22c0.3-0.31,0.47-0.29,0.78,0.01  c2.93,2.96,5.87,5.89,8.82,8.83c0.11,0.11,0.21,0.24,0.32,0.36C89.12,44.97,89.02,45.11,88.9,45.22z M95.82,38.25  c-1.42,1.59-3,3.03-4.48,4.56c-0.3,0.3-0.46,0.3-0.77,0c-2.94-2.96-5.87-5.89-8.83-8.83c-0.29-0.29-0.33-0.46-0.01-0.77  c1.54-1.51,3.04-3.08,4.61-4.56c1.27-1.19,2.84-1.73,5.34-1.66c2.04,0.12,4.14,1.4,5.28,3.97C98.14,33.59,97.73,36.1,95.82,38.25z"/>	<path class="st0" d="M99.09,29.93c-1.58-3.46-4.45-5.19-7.63-5.33c-3.15,0-5.31,0.89-7.08,2.64c-3.46,3.41-6.89,6.83-10.32,10.26  C60.57,51.01,47.1,64.51,33.6,78c-1.86,1.86-3.34,3.92-4.29,6.38c-1.51,3.92-3.01,7.87-4.55,11.79c-0.47,1.19-0.42,2.25,0.48,3.16  c0.93,0.92,2.03,0.89,3.19,0.43c3.74-1.45,7.49-2.91,11.24-4.32c2.42-0.92,4.6-2.23,6.43-4.06c10-9.98,19.98-19.98,29.96-29.98  c0.18-0.18,0.39-0.36,0.52-0.58c0.34-0.53,0.32-1.08-0.13-1.52c-0.46-0.44-1.01-0.45-1.52-0.08c-0.24,0.17-0.43,0.4-0.64,0.61  l-20.8,20.8c-2.55,2.55-5.12,5.09-7.64,7.66c-0.48,0.5-0.77,0.64-1.28,0.04c-0.83-0.94-1.72-1.82-2.64-2.64  c-0.6-0.52-0.63-0.82-0.02-1.41c8.44-8.39,16.84-16.81,25.26-25.22c4.26-4.27,8.54-8.52,12.77-12.81c0.6-0.61,0.9-0.57,1.43,0.03  c0.83,0.93,1.71,1.82,2.64,2.64c0.59,0.5,0.46,0.78-0.03,1.25c-1.42,1.36-2.79,2.77-4.19,4.17c-0.53,0.53-0.68,1.15-0.12,1.73  c0.59,0.62,1.22,0.49,1.81-0.07c0.07-0.07,0.14-0.14,0.2-0.21c3.39-3.38,6.79-6.75,10.17-10.14c1.95-1.95,3.97-3.82,5.78-5.89  C100.18,36.82,100.68,33.44,99.09,29.93z M27.51,97.59c-0.21,0.08-0.47,0.21-0.63-0.02c-0.07-0.11,0.02-0.36,0.08-0.53  c0.8-2.07,1.59-4.13,2.34-6.05c1.43,1.43,2.86,2.85,4.28,4.26C31.61,95.99,29.56,96.79,27.51,97.59z M42.94,89.98  c0.48,0.47,0.45,0.69-0.06,1.09c-1.88,1.43-4.1,2.14-6.25,3c-0.09,0.04-0.19,0.05-0.28,0.07c-0.3,0-0.44-0.24-0.63-0.42  c-1.64-1.64-3.29-3.28-4.93-4.93c-0.2-0.2-0.52-0.33-0.35-0.8c0.87-2.18,1.58-4.42,3.03-6.34c0.39-0.51,0.62-0.54,1.08-0.07  C37.32,84.4,40.13,87.2,42.94,89.98z M78.42,44.46c-0.35,0.29-0.66,0.65-0.98,0.97c-12.4,12.4-24.79,24.79-37.18,37.18  c-0.2,0.21-0.37,0.45-0.59,0.7c-0.2-0.17-0.33-0.26-0.45-0.37c-1.06-1.06-2.12-2.14-3.2-3.19c-0.36-0.34-0.31-0.54,0.02-0.86  c0.79-0.74,1.53-1.52,2.3-2.28c11.98-11.98,23.96-23.95,35.91-35.95c0.66-0.66,0.99-0.61,1.55,0.03c0.83,0.93,1.72,1.81,2.64,2.64  C78.96,43.79,78.9,44.08,78.42,44.46z M88.9,45.22c-0.74,0.75-1.49,1.46-2.21,2.23c-0.32,0.33-0.5,0.33-0.84,0  c-2.91-2.94-5.82-5.85-8.75-8.76c-0.32-0.31-0.39-0.5-0.03-0.85c0.78-0.71,1.51-1.45,2.23-2.22c0.3-0.31,0.47-0.29,0.78,0.01  c2.93,2.96,5.87,5.89,8.82,8.83c0.11,0.11,0.21,0.24,0.32,0.36C89.12,44.97,89.02,45.11,88.9,45.22z M95.82,38.25  c-1.42,1.59-3,3.03-4.48,4.56c-0.3,0.3-0.46,0.3-0.77,0c-2.94-2.96-5.87-5.89-8.83-8.83c-0.29-0.29-0.33-0.46-0.01-0.77  c1.54-1.51,3.04-3.08,4.61-4.56c1.27-1.19,2.84-1.73,5.34-1.66c2.04,0.12,4.14,1.4,5.28,3.97C98.14,33.59,97.73,36.1,95.82,38.25z"/>	<path class="st0" d="M56.85,31.87c0,5.34-2.55,8.52-7.74,9.67c-0.12,0.02-0.24,0.06-0.39,0.11c0.84,2.47,1.65,4.92,2.5,7.36  c0.18,0.54,0.31,1.08,0.09,1.62c-0.42,1-1.58,1.19-2.64,0.41c-2.88-2.11-5.74-4.24-8.61-6.37c-0.31-0.23-0.67-0.43-0.94-0.71  c-2.03-2.06-4.47-2.5-7.31-2.44c-7.47,0.17-14.94,0.06-22.42,0.06c-5.67,0-9.37-3.73-9.38-9.42C0,29.41,0,26.65,0.01,23.9  c0-1.32,0.34-1.86,1.2-1.84c0.84,0.01,1.15,0.53,1.15,1.9c0,2.68,0.12,5.38-0.02,8.06c-0.22,4.25,3.06,7.32,7.18,7.24  c8.46-0.14,16.91-0.03,25.38-0.05c1.2-0.01,2.21,0.31,3.18,1.04c3.32,2.5,6.67,4.95,10.24,7.6c-0.66-1.93-1.23-3.6-1.8-5.28  c-0.13-0.4-0.28-0.81-0.35-1.22c-0.17-1.13,0.58-2,1.78-2.12c4.36-0.46,6.54-2.89,6.54-7.26V9.45c0-4.43-2.66-7.1-7.08-7.1  c-12.64-0.01-25.3-0.01-37.95,0c-4.44,0-7.08,2.63-7.08,7.08c-0.01,2.16,0,4.32-0.01,6.49c0,1.01-0.45,1.62-1.21,1.55  c-0.9-0.07-1.16-0.67-1.15-1.5c0.02-2.43-0.02-4.85,0.01-7.27c0.06-4.6,3.66-8.37,8.24-8.68c0.45-0.03,0.91-0.03,1.37-0.03  c12.55,0,25.1,0.09,37.66-0.05c5.64-0.05,9.7,4.2,9.6,9.61C56.75,16.99,56.85,24.42,56.85,31.87z"/>	<path class="st0" d="M46.97,19.79c-0.03,0.62-0.38,1.04-1.03,1.12c-0.29,0.04-0.6,0.02-0.89,0.02H11.82c-0.29,0-0.6,0.02-0.89-0.02  c-0.65-0.07-1.02-0.46-1.06-1.09c-0.03-0.69,0.38-1.09,1.03-1.23c0.22-0.05,0.46-0.02,0.69-0.02h33.64c0.26,0,0.53-0.03,0.78,0.03  C46.61,18.75,47,19.16,46.97,19.79z"/>	<path class="st0" d="M46.97,28.14c0.03,0.64-0.35,1.05-0.97,1.19c-0.27,0.07-0.59,0.03-0.88,0.03H11.69c-0.29,0-0.6,0.03-0.88-0.04  c-0.61-0.15-0.98-0.57-0.94-1.2c0.05-0.63,0.41-1.03,1.06-1.1c0.29-0.03,0.6-0.01,0.89-0.02h16.72c5.51,0,11.01,0,16.52,0.01  c0.29,0,0.6-0.02,0.89,0.01C46.59,27.1,46.94,27.52,46.97,28.14z"/>	<path class="st0" d="M46.97,11.39c-0.04,0.71-0.48,1.12-1.23,1.12H35.72c-3.27,0-6.55-0.01-9.82,0.01c-0.81,0-1.35-0.28-1.45-1.11  c-0.08-0.71,0.52-1.21,1.43-1.26c0.2-0.01,0.39,0,0.6,0h18.56c0.26,0,0.52-0.02,0.79,0.02C46.53,10.27,47,10.66,46.97,11.39z"/></g></svg>